# xmcd
#
# Track frame offsets: 
#        151
#        12320
#        25130
#        36155
#        59829
#        74339
#        87228
#        105847
#        118654
#        128912
#        149808
#        162773
#        182472
#        200861
#        214460
#        228755
#        242312
#        256591
#
# Disc length: 3612 seconds
#
# Revision: 0
# Processed by: cddbd v1.4PL0 Copyright (c) Steve Scherf et al.
# Submitted via: ExactAudioCopy v0.90b4
#
DISCID=fb0e1a12
DTITLE=Jimmy Yancey feat. Estelle 'Mama' Yancey - The Best of
DYEAR=1900
DGENRE=Acoustic
TTITLE0=Yancey Special
TTITLE1=How Long Blues
TTITLE2=Yancey's Bugle Call
TTITLE3=Four O' Clock Blues
TTITLE4=35th And Dearborne
TTITLE5=Salute To Pinetop
TTITLE6=Monkey Woman Blues
TTITLE7=Santa Fe' Blues
TTITLE8=Blues For Albert
TTITLE9=Make Me A Pallet On The Floor
TTITLE10=Shave 'Em Dry
TTITLE11=Eternal Blues
TTITLE12=White Sox Stomp
TTITLE13=Two O' Clock Blues
TTITLE14=Lucille's Lament
TTITLE15=Steady Rock Blues
TTITLE16=South Side Stuff
TTITLE17=Yancey's Getaway
EXTD=
EXTT0=
EXTT1=
EXTT2=
EXTT3=
EXTT4=
EXTT5=
EXTT6=
EXTT7=
EXTT8=
EXTT9=
EXTT10=
EXTT11=
EXTT12=
EXTT13=
EXTT14=
EXTT15=
EXTT16=
EXTT17=
PLAYORDER=
